<?xml version="1.0" standalone="no"?>
<!DOCTYPE svg PUBLIC "-//W3C//DTD SVG 20010904//EN"
 "http://www.w3.org/TR/2001/REC-SVG-20010904/DTD/svg10.dtd">
<svg version="1.0" xmlns="http://www.w3.org/2000/svg"
 width="1080.000000pt" height="1080.000000pt" viewBox="0 0 1080.000000 1080.000000"
 preserveAspectRatio="xMidYMid meet">
<metadata>
Created by potrace 1.14, written by Peter Selinger 2001-2017
</metadata>
<g transform="translate(0.000000,1080.000000) scale(0.100000,-0.100000)"
fill="#000000" stroke="none">
<path d="M4942 9660 c-34 -5 -95 -11 -135 -13 -70 -5 -156 -19 -322 -52 -44
-9 -103 -20 -131 -24 -150 -25 -550 -156 -749 -245 -70 -31 -345 -169 -400
-201 -33 -19 -67 -37 -75 -42 -39 -19 -315 -204 -390 -262 -183 -140 -421
-356 -549 -498 -41 -44 -86 -94 -100 -109 -59 -63 -227 -283 -301 -394 -116
-174 -189 -297 -274 -460 -35 -68 -60 -103 -89 -125 -272 -205 -364 -454 -248
-676 12 -22 19 -44 17 -48 -13 -20 -72 -325 -96 -496 -37 -262 -51 -681 -30
-897 26 -257 32 -310 51 -413 11 -60 28 -150 39 -200 10 -49 21 -101 24 -115
12 -62 28 -117 41 -147 8 -17 15 -43 15 -57 0 -15 9 -45 20 -66 11 -22 28 -68
36 -103 9 -34 28 -84 41 -111 14 -27 32 -72 40 -100 17 -58 171 -380 234 -489
106 -185 251 -396 388 -567 124 -155 431 -471 546 -562 39 -31 97 -78 130
-105 56 -45 82 -65 195 -146 206 -150 607 -364 865 -464 22 -8 54 -21 70 -28
44 -19 120 -44 200 -66 39 -10 79 -23 90 -28 38 -18 168 -51 310 -80 28 -5 64
-12 80 -16 259 -52 473 -70 830 -70 439 1 609 19 1005 111 173 40 423 117 505
155 22 10 97 42 168 70 70 28 137 59 150 69 12 9 35 20 50 24 16 4 81 37 145
73 65 36 131 73 147 82 17 9 50 30 75 46 25 17 53 35 62 40 43 25 266 183 286
202 8 8 30 25 50 40 21 15 55 43 77 63 22 19 62 53 89 75 64 52 275 261 348
345 358 412 584 773 770 1230 80 199 175 489 198 610 6 30 15 75 20 100 29
143 52 276 60 355 36 334 42 437 36 630 -7 252 -51 639 -91 805 -8 36 -22 99
-30 140 -8 41 -18 89 -24 105 -5 17 -31 98 -57 180 -55 174 -115 329 -183 470
-26 55 -60 127 -75 160 -78 170 -319 544 -465 720 -152 183 -180 214 -331 365
-299 299 -649 555 -1033 754 -200 104 -504 229 -667 274 -19 5 -88 26 -153 46
-65 20 -143 40 -175 46 -31 6 -93 17 -137 25 -44 8 -116 21 -160 30 -44 9
-129 21 -190 26 -140 14 -760 20 -843 9z m833 -190 c490 -57 983 -206 1398
-424 100 -51 377 -213 387 -225 3 -3 25 -19 50 -36 52 -34 230 -167 251 -187
8 -7 55 -47 104 -88 276 -228 666 -687 818 -962 14 -25 36 -63 49 -85 45 -71
126 -227 173 -333 26 -58 53 -118 61 -135 102 -224 230 -681 270 -968 6 -47 6
-48 -17 -43 -13 3 -130 10 -259 16 -129 6 -305 14 -390 20 -85 5 -274 14 -420
20 -146 6 -275 13 -287 16 l-22 4 29 58 c57 113 91 245 103 398 11 148 13 132
-34 354 -10 49 -98 230 -128 264 -11 11 -51 57 -89 101 -63 73 -107 110 -216
181 -43 28 -201 84 -237 84 -13 0 -37 -7 -53 -15 -15 -8 -31 -13 -36 -10 -4 2
-13 26 -21 52 -13 48 -31 80 -91 163 -35 49 -178 194 -218 223 -72 50 -189
125 -220 140 -19 10 -50 27 -67 38 -18 11 -38 22 -45 23 -7 2 -48 19 -90 40
-42 20 -82 36 -88 36 -6 0 -25 8 -43 17 -78 41 -304 110 -542 166 -106 26
-316 47 -453 47 -124 0 -363 -23 -437 -42 -22 -5 -65 -15 -95 -23 -80 -18
-240 -70 -275 -89 -16 -9 -36 -16 -44 -16 -7 0 -72 -29 -145 -65 -134 -67
-140 -70 -214 -117 -62 -40 -70 -37 -64 22 4 44 1 53 -24 80 -84 92 -328 213
-514 255 -90 21 -335 31 -405 17 -94 -19 -196 -52 -235 -77 -22 -14 -44 -25
-50 -25 -5 0 -10 -4 -10 -8 0 -4 -14 -16 -31 -26 -93 -55 -219 -247 -250 -381
-25 -111 4 -294 62 -389 10 -17 19 -35 19 -41 0 -6 -89 -10 -247 -10 -274 0
-373 -10 -562 -56 -67 -17 -125 -28 -128 -26 -2 3 14 36 38 74 23 37 50 84 61
103 34 60 163 244 239 342 120 153 239 286 375 418 375 363 722 595 1235 828
245 111 612 220 914 271 111 19 344 46 475 55 127 9 522 -5 685 -24z m-2215
-1245 c145 -28 262 -72 395 -148 50 -28 100 -50 113 -49 43 3 33 -6 -148 -135
-70 -51 -163 -139 -177 -168 -19 -40 -12 -77 22 -111 29 -29 87 -32 126 -6 76
50 94 63 169 125 26 22 212 137 220 137 5 0 15 6 22 13 7 7 38 25 68 40 30 15
62 31 70 37 37 22 143 69 170 75 17 4 30 10 30 14 0 4 21 13 47 19 26 7 61 19
78 27 37 17 145 45 174 45 12 0 21 4 21 8 0 5 83 19 185 31 152 19 209 21 318
16 250 -14 456 -55 717 -144 290 -99 443 -186 598 -339 24 -23 48 -40 54 -36
7 4 8 3 4 -5 -5 -7 3 -23 19 -39 15 -15 49 -57 75 -94 26 -37 50 -64 54 -60 4
3 4 -2 0 -12 -5 -12 -4 -17 3 -13 5 3 10 -1 10 -9 0 -11 -7 -14 -21 -9 -76 21
-125 25 -186 15 -90 -16 -143 -44 -164 -86 -15 -33 -15 -37 4 -74 28 -55 66
-65 190 -50 52 6 113 12 135 13 39 2 40 1 37 -30 -2 -21 7 -49 29 -88 30 -53
31 -61 26 -125 -4 -46 -16 -91 -36 -135 -17 -37 -31 -68 -31 -70 0 -2 -11 -21
-25 -41 -14 -20 -25 -50 -25 -65 0 -32 -6 -35 -34 -14 -11 8 -29 15 -40 15
-11 0 -66 16 -122 36 -83 28 -108 33 -135 26 -44 -11 -74 -59 -65 -106 6 -32
35 -76 50 -76 4 0 20 -10 36 -22 25 -18 47 -22 138 -26 l108 -4 37 34 c20 20
37 45 37 57 0 11 6 21 13 21 7 0 18 15 25 33 24 68 105 83 226 43 44 -15 91
-35 105 -45 14 -9 52 -32 83 -49 49 -27 58 -30 66 -16 15 27 93 46 212 51 106
5 117 4 138 -15 13 -12 28 -22 32 -24 8 -3 14 -46 12 -83 -2 -23 -72 -60 -133
-70 -63 -11 -68 -21 -29 -56 19 -17 52 -47 73 -65 21 -19 42 -34 47 -34 15 0
40 -56 40 -90 0 -46 -41 -83 -87 -78 -32 4 -37 1 -49 -28 -8 -18 -18 -35 -24
-39 -6 -4 -77 -2 -158 4 -81 5 -233 13 -338 17 l-191 6 -9 31 c-5 17 -21 39
-35 50 -38 27 -80 15 -137 -39 -25 -24 -47 -44 -49 -44 -2 0 -3 12 -3 26 0 46
-48 74 -125 74 -35 0 -49 -6 -74 -31 -40 -40 -41 -81 -1 -129 28 -34 31 -35
95 -34 59 2 65 0 60 -16 -9 -28 42 -79 90 -90 46 -11 134 -16 460 -30 127 -6
354 -17 505 -25 151 -8 367 -19 480 -24 113 -6 300 -15 415 -22 116 -6 318
-16 450 -22 l240 -12 8 -100 c4 -55 6 -208 3 -340 -19 -853 -301 -1665 -817
-2351 -219 -291 -454 -528 -783 -787 -158 -126 -522 -349 -706 -434 -279 -129
-578 -234 -820 -289 -145 -33 -305 -64 -326 -64 -28 0 -35 19 -24 62 10 41 29
195 85 696 9 75 20 169 25 207 6 39 14 115 20 170 5 55 16 156 24 225 24 206
47 391 57 470 11 91 36 311 49 439 5 52 12 102 15 110 2 9 9 63 14 121 6 58
17 161 25 230 8 69 26 224 41 345 14 121 32 276 41 345 8 69 19 163 24 210 6
47 14 110 20 140 28 165 44 251 57 300 8 30 15 64 17 75 1 11 9 20 16 20 7 0
15 6 18 14 3 9 0 11 -9 6 -8 -5 -11 -4 -6 1 5 5 11 8 13 6 9 -6 35 28 29 38
-4 6 -3 10 2 9 23 -4 35 2 29 17 -3 8 -2 12 3 9 6 -3 31 9 58 26 l48 31 225
-6 c124 -4 275 -9 335 -11 61 -3 106 -3 100 0 -30 14 -430 89 -537 100 -71 8
-182 -1 -174 -14 3 -4 -4 -7 -14 -8 -21 -2 -110 -62 -160 -109 l-34 -33 19
-23 20 -23 -21 18 c-18 14 -23 15 -32 4 -20 -24 -43 -87 -36 -99 4 -7 3 -8 -4
-4 -8 5 -12 -2 -12 -21 0 -15 -7 -41 -15 -57 -21 -39 -37 -146 -75 -501 -6
-49 -14 -124 -20 -165 -5 -41 -19 -154 -30 -250 -11 -96 -27 -222 -35 -280 -8
-58 -22 -170 -30 -250 -18 -164 -33 -292 -70 -600 -14 -118 -39 -325 -56 -460
-16 -135 -33 -274 -39 -310 -5 -36 -19 -150 -30 -255 -11 -104 -23 -208 -26
-230 -23 -184 -35 -284 -44 -365 -5 -52 -14 -129 -20 -170 -23 -164 -27 -210
-16 -211 24 -3 -82 -18 -130 -18 l-51 -1 8 53 c5 28 13 90 18 137 14 113 35
282 61 465 38 276 113 863 130 1027 5 47 19 160 30 250 11 90 25 204 30 253
29 266 50 442 95 790 17 139 44 339 50 385 2 19 9 76 15 125 8 79 24 212 46
382 7 58 -7 108 -37 123 -47 26 -106 -3 -129 -62 -16 -40 -53 -89 -137 -184
-34 -39 -67 -84 -73 -99 -29 -76 53 -144 118 -99 13 9 25 14 26 13 2 -2 0 -33
-5 -69 -80 -576 -169 -1278 -169 -1332 0 -25 -2 -26 -49 -25 -39 2 -54 -3 -75
-22 -49 -46 -45 -77 40 -256 l37 -79 -17 -136 c-34 -273 -68 -539 -91 -710
-13 -96 -33 -251 -45 -345 -12 -93 -23 -179 -26 -191 -6 -32 -116 -141 -165
-163 -65 -30 -181 -29 -259 3 -95 39 -213 126 -260 192 -107 152 -175 272
-212 379 -57 161 -101 304 -133 430 -18 74 -42 146 -52 159 -47 65 -143 25
-143 -60 0 -37 34 -239 50 -299 63 -232 218 -579 315 -705 109 -142 256 -253
395 -300 121 -41 276 -37 375 10 45 21 53 13 35 -35 l-10 -28 -168 7 c-388 16
-565 40 -897 122 -359 88 -696 222 -1025 407 -99 56 -404 254 -432 280 -7 7
-47 39 -88 71 -174 137 -435 387 -545 521 -28 33 -55 65 -61 70 -42 37 -245
324 -361 511 -68 108 -183 334 -248 487 l-37 87 28 38 c16 20 34 44 41 52 50
62 83 112 83 125 0 8 5 15 10 15 6 0 14 8 17 18 6 16 66 96 87 117 12 11 76
114 76 121 0 3 14 20 31 37 17 17 64 76 104 132 40 55 82 110 93 122 11 12 23
31 27 43 3 11 10 20 15 20 5 0 11 9 15 19 3 11 21 39 40 63 19 23 35 53 35 66
0 12 4 22 9 22 5 0 20 21 33 48 13 26 25 49 28 52 11 11 53 118 62 159 8 33 7
54 -3 84 -25 75 -132 98 -159 35 -6 -13 -14 -30 -19 -38 -5 -8 -23 -44 -40
-80 -61 -127 -110 -207 -159 -258 -6 -7 -12 -18 -12 -23 0 -5 -17 -28 -38 -52
-21 -23 -44 -55 -52 -71 -8 -16 -27 -42 -42 -59 -16 -16 -28 -32 -28 -36 0 -3
-23 -30 -50 -60 -28 -30 -50 -57 -50 -61 0 -13 -68 -110 -91 -129 -13 -11 -21
-20 -16 -21 4 0 -3 -10 -15 -22 -13 -13 -27 -22 -31 -20 -5 1 -5 -3 -2 -9 4
-6 -2 -24 -14 -40 -11 -15 -21 -32 -21 -37 0 -5 -7 -15 -15 -22 -8 -7 -13 -16
-10 -20 3 -4 -2 -10 -10 -14 -8 -3 -20 -17 -27 -31 -6 -14 -14 -25 -17 -25 -8
0 -25 56 -76 254 -85 334 -116 577 -122 956 -4 245 -2 311 16 470 12 102 28
223 37 270 17 98 45 234 49 238 3 4 78 -47 85 -57 3 -5 28 -20 55 -35 28 -15
57 -31 65 -36 44 -28 304 -144 388 -174 34 -13 60 -25 57 -27 -2 -3 4 -5 13
-6 9 -1 37 -9 62 -18 25 -10 74 -26 110 -36 36 -9 98 -29 138 -43 41 -14 113
-31 161 -37 76 -10 92 -9 119 5 62 32 64 138 3 197 -34 32 -62 36 -105 14 -32
-17 -58 -19 -71 -6 -6 5 -57 23 -115 41 -58 17 -109 35 -115 40 -5 4 -37 15
-70 24 -33 10 -78 26 -100 36 -22 10 -69 28 -105 41 -36 12 -72 27 -80 34 -8
6 -35 20 -60 30 -66 29 -211 105 -240 127 -103 77 -155 132 -186 197 -35 72
-28 140 21 221 59 97 240 244 328 265 15 4 27 11 27 15 0 4 15 10 33 14 17 4
68 17 112 30 281 84 666 88 1193 12 191 -27 232 -24 274 24 40 46 41 90 4 128
-18 19 -34 24 -72 24 -27 -1 -67 4 -89 9 -74 19 -250 48 -287 49 l-38 0 0 48
c0 26 -7 60 -15 76 -21 40 -43 121 -51 188 -5 44 -1 73 14 125 53 173 196 305
367 339 84 16 275 11 385 -11z"/>
<path d="M7957 7402 c-40 -43 -29 -122 17 -122 47 0 119 -114 213 -340 22 -54
28 -68 76 -175 25 -55 48 -110 52 -123 9 -29 49 -46 76 -32 42 23 33 92 -38
307 -79 239 -198 443 -285 489 -38 20 -91 18 -111 -4z"/>
<path d="M8395 7276 c-30 -22 -25 -75 12 -122 49 -63 137 -245 147 -306 11
-61 49 -83 97 -58 58 32 -25 314 -132 450 -33 42 -45 50 -72 50 -18 0 -42 -6
-52 -14z"/>
<path d="M4905 7333 c-110 -12 -231 -56 -301 -109 -62 -48 -104 -167 -75 -213
6 -9 5 -24 0 -39 -14 -37 7 -90 45 -113 56 -34 110 -23 254 49 326 166 336
173 352 233 19 71 -12 134 -82 166 -43 20 -136 33 -193 26z"/>
<path d="M7520 6276 c0 -3 9 -10 20 -16 11 -6 20 -8 20 -6 0 3 -9 10 -20 16
-11 6 -20 8 -20 6z"/>
<path d="M7615 6216 c17 -14 34 -26 39 -26 11 0 11 0 -34 29 l-35 23 30 -26z"/>
<path d="M6244 6058 c-44 -21 -57 -103 -28 -173 17 -43 26 -55 72 -101 49 -50
110 -44 137 12 31 65 -17 232 -75 261 -30 15 -77 16 -106 1z"/>
<path d="M2342 5880 c-7 -11 -8 -20 -3 -20 9 0 24 30 18 36 -1 2 -8 -6 -15
-16z"/>
<path d="M5947 5815 c-20 -14 -40 -37 -43 -51 -11 -43 4 -125 26 -149 11 -12
20 -25 20 -31 1 -14 32 -48 63 -68 46 -31 115 4 118 58 4 87 -18 186 -49 221
-18 21 -64 45 -85 45 -7 0 -29 -11 -50 -25z"/>
<path d="M2308 5763 c-9 -2 -25 -22 -36 -44 -16 -33 -18 -47 -10 -72 5 -18 10
-37 11 -44 0 -7 4 -10 8 -7 4 2 14 -3 22 -11 43 -43 123 -47 157 -8 30 34 30
70 -1 114 -51 72 -87 89 -151 72z"/>
<path d="M7907 5552 c-22 -24 -21 -35 1 -54 24 -22 70 -28 207 -28 66 1 132 0
147 0 24 0 48 22 48 44 0 17 -70 35 -177 45 -172 16 -207 14 -226 -7z"/>
<path d="M2245 5534 c-6 -1 -22 -5 -37 -8 -19 -4 -34 -19 -47 -44 -17 -34 -18
-40 -4 -74 19 -47 60 -68 114 -58 82 15 113 80 65 137 -23 27 -71 52 -91 47z"/>
</g>
</svg>
